<mxfile host="app.diagrams.net" modified="2022-07-07T08:37:46.965Z" agent="5.0 (Macintosh; Intel Mac OS X 10_15_7) AppleWebKit/537.36 (KHTML, like Gecko) Chrome/103.0.0.0 Safari/537.36" etag="Mjq0IRyD5H9e7vFY5_6_" version="20.0.4" type="github">
  <diagram id="FN7JmQfGdZutKTDvOImT" name="Page-1">
    <mxGraphModel dx="860" dy="471" grid="1" gridSize="10" guides="1" tooltips="1" connect="1" arrows="1" fold="1" page="1" pageScale="1" pageWidth="827" pageHeight="1169" math="0" shadow="0">
      <root>
        <mxCell id="0" />
        <mxCell id="1" parent="0" />
        <mxCell id="w8G9AYidbwC08ea4O24T-1" value="&lt;font style=&quot;font-size: 14px;&quot;&gt;启动类加载器&lt;br&gt;Bootstrap ClassLoader&lt;br&gt;&lt;/font&gt;" style="rounded=0;whiteSpace=wrap;html=1;fillColor=#00FFFF;" parent="1" vertex="1">
          <mxGeometry x="120" y="80" width="160" height="60" as="geometry" />
        </mxCell>
        <mxCell id="w8G9AYidbwC08ea4O24T-2" value="&lt;font style=&quot;font-size: 14px;&quot;&gt;扩展类加载器&lt;br&gt;Extension ClassLoader&lt;br&gt;&lt;/font&gt;" style="rounded=0;whiteSpace=wrap;html=1;fillColor=#00FFFF;" parent="1" vertex="1">
          <mxGeometry x="120" y="200" width="160" height="60" as="geometry" />
        </mxCell>
        <mxCell id="w8G9AYidbwC08ea4O24T-3" value="&lt;font style=&quot;font-size: 14px;&quot;&gt;应用程序类加载器&lt;br&gt;Application ClassLoader&lt;br&gt;&lt;/font&gt;" style="rounded=0;whiteSpace=wrap;html=1;fillColor=#00FFFF;" parent="1" vertex="1">
          <mxGeometry x="120" y="320" width="160" height="60" as="geometry" />
        </mxCell>
        <mxCell id="w8G9AYidbwC08ea4O24T-4" value="&lt;font style=&quot;font-size: 14px;&quot;&gt;用户自定义类加载器&lt;br&gt;User ClassLoader&lt;br&gt;&lt;/font&gt;" style="rounded=0;whiteSpace=wrap;html=1;fillColor=#00FFFF;" parent="1" vertex="1">
          <mxGeometry x="10" y="440" width="160" height="60" as="geometry" />
        </mxCell>
        <mxCell id="w8G9AYidbwC08ea4O24T-5" value="&lt;font style=&quot;font-size: 14px;&quot;&gt;用户自定义类加载器&lt;br&gt;User ClassLoader&lt;br&gt;&lt;/font&gt;" style="rounded=0;whiteSpace=wrap;html=1;fillColor=#00FFFF;" parent="1" vertex="1">
          <mxGeometry x="230" y="440" width="160" height="60" as="geometry" />
        </mxCell>
        <mxCell id="Q_bOff2ndZU6n_nQ4Sd2-1" value="" style="shape=flexArrow;endArrow=classic;html=1;rounded=0;fontSize=14;fontColor=#000000;endWidth=11.891891891891891;endSize=5.6378378378378375;" edge="1" parent="1">
          <mxGeometry width="50" height="50" relative="1" as="geometry">
            <mxPoint x="199.5" y="190" as="sourcePoint" />
            <mxPoint x="199" y="150" as="targetPoint" />
          </mxGeometry>
        </mxCell>
        <mxCell id="Q_bOff2ndZU6n_nQ4Sd2-2" value="" style="shape=flexArrow;endArrow=classic;html=1;rounded=0;fontSize=14;fontColor=#000000;endWidth=11.891891891891891;endSize=5.6378378378378375;" edge="1" parent="1">
          <mxGeometry width="50" height="50" relative="1" as="geometry">
            <mxPoint x="200.22999999999988" y="310" as="sourcePoint" />
            <mxPoint x="199.73" y="270" as="targetPoint" />
          </mxGeometry>
        </mxCell>
        <mxCell id="Q_bOff2ndZU6n_nQ4Sd2-3" value="" style="shape=flexArrow;endArrow=classic;html=1;rounded=0;fontSize=14;fontColor=#000000;endWidth=11.891891891891891;endSize=5.6378378378378375;" edge="1" parent="1">
          <mxGeometry width="50" height="50" relative="1" as="geometry">
            <mxPoint x="140.4999999999999" y="430" as="sourcePoint" />
            <mxPoint x="140" y="390" as="targetPoint" />
          </mxGeometry>
        </mxCell>
        <mxCell id="Q_bOff2ndZU6n_nQ4Sd2-4" value="" style="shape=flexArrow;endArrow=classic;html=1;rounded=0;fontSize=14;fontColor=#000000;endWidth=11.891891891891891;endSize=5.6378378378378375;" edge="1" parent="1">
          <mxGeometry width="50" height="50" relative="1" as="geometry">
            <mxPoint x="260.4999999999999" y="430" as="sourcePoint" />
            <mxPoint x="260" y="390" as="targetPoint" />
          </mxGeometry>
        </mxCell>
      </root>
    </mxGraphModel>
  </diagram>
</mxfile>
